# xmcd
# 
# Track frame offsets:
#     150
#     15024
#     29598
#     52415
#     68943
#     92528
#     110616
#     123386
#     140021
#     156499
#     180871
#     194777
#     207132
#     223434
#     236701
#     248506
#     267816
#     289767
#     305171
#     318835
#     335693
# 
# Disc length: 4646
# 
# Revision: 0
# Processed by: cddbd v1.5.2PL0 Copyright (c) Steve Scherf et al.
# Submitted via: BonkEnc v1.0.5
# 
DISCID=45122415
DTITLE=Johnny Cash - American Live Recordings - Live at Irving Plaza
DYEAR=0
DGENRE=Country
TTITLE0=Folsom Prison Blues
TTITLE1=Get Rhythem
TTITLE2=Sunday Morning Coming Down
TTITLE3=(Ghost) Riders In The Sky
TTITLE4=Cowboy`s Prayer
TTITLE5=I Never Picket Cotton
TTITLE6=Unchained
TTITLE7=Rowboat
TTITLE8=Rusty Cage
TTITLE9=Southern Accent
TTITLE10=Memories Are Made Of This
TTITLE11=Ring of Fire
TTITLE12=I Walk The Line
TTITLE13=Big River
TTITLE14=I Still Miss Someone
TTITLE15=Orange Blossom Special
TTITLE16=Outro/Farside Banks Of Jordon
TTITLE17=Gentle On My Mind
TTITLE18=Heart Of Gold
TTITLE19=Pocahontas
TTITLE20=Father And Son
EXTD=
EXTT0=
EXTT1=
EXTT2=
EXTT3=
EXTT4=
EXTT5=
EXTT6=
EXTT7=
EXTT8=
EXTT9=
EXTT10=
EXTT11=
EXTT12=
EXTT13=
EXTT14=
EXTT15=
EXTT16=
EXTT17=
EXTT18=
EXTT19=
EXTT20=
PLAYORDER=
